<mxfile host="65bd71144e">
    <diagram id="XDFHtFA7_qUXPXPdZNC8" name="Page-1">
        <mxGraphModel dx="1453" dy="659" grid="1" gridSize="10" guides="1" tooltips="1" connect="1" arrows="1" fold="1" page="1" pageScale="1" pageWidth="827" pageHeight="1169" math="0" shadow="0">
            <root>
                <mxCell id="0"/>
                <mxCell id="1" parent="0"/>
                <mxCell id="2" value=":identifier-entity" style="rounded=1;whiteSpace=wrap;html=1;fillColor=#FFFFCC;strokeColor=#d6b656;arcSize=30;" parent="1" vertex="1">
                    <mxGeometry x="400" y="180" width="120" height="40" as="geometry"/>
                </mxCell>
                <mxCell id="9" value="" style="endArrow=classic;html=1;strokeWidth=2;" parent="1" edge="1">
                    <mxGeometry width="50" height="50" relative="1" as="geometry">
                        <mxPoint x="80" y="180" as="sourcePoint"/>
                        <mxPoint x="80" y="460" as="targetPoint"/>
                    </mxGeometry>
                </mxCell>
                <mxCell id="10" value="Time" style="edgeLabel;html=1;align=center;verticalAlign=middle;resizable=0;points=[];" parent="9" vertex="1" connectable="0">
                    <mxGeometry relative="1" as="geometry">
                        <mxPoint as="offset"/>
                    </mxGeometry>
                </mxCell>
                <mxCell id="56" value="prov:used" style="edgeStyle=orthogonalEdgeStyle;rounded=0;jumpStyle=arc;html=1;exitX=1;exitY=0.25;exitDx=0;exitDy=0;entryX=0.25;entryY=1;entryDx=0;entryDy=0;startArrow=none;startFill=0;endArrow=classic;endFill=1;" parent="1" source="11" target="2" edge="1">
                    <mxGeometry x="-0.1111" relative="1" as="geometry">
                        <mxPoint as="offset"/>
                    </mxGeometry>
                </mxCell>
                <mxCell id="57" value="prov:used" style="edgeStyle=orthogonalEdgeStyle;rounded=0;jumpStyle=arc;html=1;exitX=1;exitY=0.75;exitDx=0;exitDy=0;entryX=0.25;entryY=1;entryDx=0;entryDy=0;startArrow=none;startFill=0;endArrow=classic;endFill=1;" parent="1" source="11" target="51" edge="1">
                    <mxGeometry x="-0.5556" relative="1" as="geometry">
                        <mxPoint as="offset"/>
                    </mxGeometry>
                </mxCell>
                <mxCell id="11" value=":proposal-activity" style="shape=process;whiteSpace=wrap;html=1;backgroundOutline=1;fillColor=#e1d5e7;strokeColor=#9673a6;" parent="1" vertex="1">
                    <mxGeometry x="120" y="240" width="160" height="40" as="geometry"/>
                </mxCell>
                <mxCell id="35" value="" style="edgeStyle=none;html=1;" parent="1" edge="1">
                    <mxGeometry relative="1" as="geometry">
                        <mxPoint x="360" y="460" as="sourcePoint"/>
                        <mxPoint x="360" y="460" as="targetPoint"/>
                    </mxGeometry>
                </mxCell>
                <mxCell id="58" value="prov:used" style="edgeStyle=orthogonalEdgeStyle;rounded=0;jumpStyle=arc;html=1;exitX=1;exitY=0.25;exitDx=0;exitDy=0;entryX=0.75;entryY=1;entryDx=0;entryDy=0;startArrow=none;startFill=0;endArrow=classic;endFill=1;" parent="1" source="41" target="2" edge="1">
                    <mxGeometry x="-0.5556" relative="1" as="geometry">
                        <Array as="points">
                            <mxPoint x="490" y="370"/>
                        </Array>
                        <mxPoint as="offset"/>
                    </mxGeometry>
                </mxCell>
                <mxCell id="59" value="prov:used" style="edgeStyle=orthogonalEdgeStyle;rounded=0;jumpStyle=arc;html=1;exitX=1;exitY=0.75;exitDx=0;exitDy=0;startArrow=none;startFill=0;endArrow=classic;endFill=1;entryX=0.5;entryY=1;entryDx=0;entryDy=0;" parent="1" source="41" target="60" edge="1">
                    <mxGeometry x="-0.5897" relative="1" as="geometry">
                        <Array as="points">
                            <mxPoint x="620" y="390"/>
                        </Array>
                        <mxPoint as="offset"/>
                        <mxPoint x="650" y="380" as="targetPoint"/>
                    </mxGeometry>
                </mxCell>
                <mxCell id="41" value=":decision-activity" style="shape=process;whiteSpace=wrap;html=1;backgroundOutline=1;fillColor=#e1d5e7;strokeColor=#9673a6;" parent="1" vertex="1">
                    <mxGeometry x="120" y="360" width="160" height="40" as="geometry"/>
                </mxCell>
                <mxCell id="42" style="edgeStyle=none;html=1;exitX=0.5;exitY=0;exitDx=0;exitDy=0;entryX=0.5;entryY=1;entryDx=0;entryDy=0;" parent="1" source="41" target="11" edge="1">
                    <mxGeometry relative="1" as="geometry">
                        <mxPoint x="170" y="130" as="targetPoint"/>
                        <mxPoint x="170" y="330" as="sourcePoint"/>
                    </mxGeometry>
                </mxCell>
                <mxCell id="43" value="prov:wasInformedBy" style="edgeLabel;html=1;align=center;verticalAlign=middle;resizable=0;points=[];" parent="42" vertex="1" connectable="0">
                    <mxGeometry x="-0.125" y="-3" relative="1" as="geometry">
                        <mxPoint as="offset"/>
                    </mxGeometry>
                </mxCell>
                <mxCell id="46" value="prov:wasGeneratedBy" style="edgeStyle=orthogonalEdgeStyle;rounded=0;html=1;exitX=0;exitY=0.5;exitDx=0;exitDy=0;entryX=0.75;entryY=1;entryDx=0;entryDy=0;endArrow=classic;endFill=1;" parent="1" source="44" target="41" edge="1">
                    <mxGeometry x="-0.0909" relative="1" as="geometry">
                        <mxPoint as="offset"/>
                    </mxGeometry>
                </mxCell>
                <mxCell id="44" value=":decision-vote-entity" style="rounded=1;whiteSpace=wrap;html=1;fillColor=#FFFFCC;strokeColor=#d6b656;arcSize=30;" parent="1" vertex="1">
                    <mxGeometry x="400" y="420" width="120" height="40" as="geometry"/>
                </mxCell>
                <mxCell id="51" value=":proposal-entity" style="rounded=1;whiteSpace=wrap;html=1;fillColor=#FFFFCC;strokeColor=#d6b656;arcSize=30;" parent="1" vertex="1">
                    <mxGeometry x="560" y="180" width="120" height="40" as="geometry"/>
                </mxCell>
                <mxCell id="60" value=":decision-entity" style="rounded=1;whiteSpace=wrap;html=1;fillColor=#FFFFCC;strokeColor=#d6b656;arcSize=30;" vertex="1" parent="1">
                    <mxGeometry x="560" y="300" width="120" height="40" as="geometry"/>
                </mxCell>
            </root>
        </mxGraphModel>
    </diagram>
</mxfile>